# xmcd
# 
# Track frame offsets:
#     150
#     24277
#     48390
#     69752
#     99320
#     109517
#     133887
#     155060
#     189997
#     211200
#     230685
#     253122
#     274485
# 
# Disc length: 4076
# 
# Revision: 7
# Processed by: cddbd v1.5.2PL0 Copyright (c) Steve Scherf et al.
# Submitted via: fre:ac v1.0.31
# 
DISCID=b30fea0d
DTITLE=John Mayall - Back To The Roots Disc 2
DYEAR=1971
DGENRE=Blues
TTITLE0=Dream With Me
TTITLE1=Full Speed Ahead
TTITLE2=Mr. Censor Man
TTITLE3=Force Of Nature
TTITLE4=Boogie Albert
TTITLE5=Goodbye December
TTITLE6=Unanswered Questions
TTITLE7=Devil's Tricks
TTITLE8=Travelling
TTITLE9=Prisons On The Road (1988 remix) (Bonus Tack)
TTITLE10=Home Again (1988 remix) (Bonus Tack)
TTITLE11=Mr. Censor Man (1988 remix) (Bonus Tack)
TTITLE12=Looking At Tomorrow (1988 remix) (Bonus Tack)
EXTD=YEAR: 2001
EXTT0=
EXTT1=
EXTT2=
EXTT3=
EXTT4=
EXTT5=
EXTT6=
EXTT7=
EXTT8=
EXTT9=
EXTT10=
EXTT11=
EXTT12=
PLAYORDER=
